<svg viewBox="0 0 1000 500" id="ff13122b-c9a2-4eb3-994d-202711f70fc9" data-name="Layer 1" xmlns="http://www.w3.org/2000/svg">
		<filter id="blurMe">
       <feGaussianBlur stdDeviation="6"/>
    </filter>

    <pattern id="isometric" width="25" height="12.5" viewBox="0 0 10 5" patternUnits="userSpaceOnUse" x="0" y="0" >
          <g stroke="#0004" stroke-dasharray="2 1" stroke-width=".25">
            <path d="m0,0 v100"/>
            <path d="m10,0 v100"/>
          </g>
          <path d="m5,0 v100" stroke-width=".25" stroke="#0004" stroke-dasharray=".5"/>
          <g stroke-width=".25" stroke="#0004">
            <path d="m0,0 l10,5"/>
            <path d="m10,0 l-10,5"/>
          </g>
    </pattern>
    <pattern id="first_floor" width="25" height="25" viewBox="0 0 5 5" patternUnits="userSpaceOnUse" x="0" y="0">
          <rect height="5" width="5" fill="#57585B" />
          <circle cx="2.5" cy="2.5" r="0.3" fill="green" />
          <circle cx="1" cy="1" r="0.1" fill="white" />
          <circle cx="1.5" cy="2.5" r="0.1" fill="white" />
    </pattern>
    <defs>
      <filter id="f1" height="120%">
        <feGaussianBlur in="SourceAlpha" stdDeviation="3"/>
        <feOffset dx="2" dy="2" result="offsetblur"/>
        <feComponentTransfer>
          <feFuncA type="linear" slope="0.5"/>
        </feComponentTransfer>
        <feMerge> 
          <feMergeNode/> 
          <feMergeNode in="SourceGraphic"/> 
        </feMerge>
      </filter>
    </defs>
    
    <path d="M100,275 L100,275 100,290 L100,290 500,488 L500,488 900,290 L900,290 900,275" fill="#30B468" />
    <path d="M100,275 L100,275 500,75 L500,75 900,275 L900,275 500,475 L500,475 100,275" fill="#BAE1F7" />

    <path d="M225,263 v-88 l0,0 101,50 v88 l0,0 -100,-49.5" fill="#57585B" />
        <g fill="#0092D0" stroke="white" stroke-width="2" stroke-linejoin="round">
          <path d="M245,255 v-50 l0,0 20,10 v50 l0,0 -20,-10" />
          <path d="M285,275 v-50 l0,0 20,10 v50 l0,0 -20,-10" />
        </g>

        <g fill="#fffcbb" filter="url(#blurMe)">
          <path d="M245,255 v-50 l0,0 20,10 v50 l0,0 -20,-10" />
          <path d="M285,275 v-50 l0,0 20,10 v50 l0,0 -20,-10" />
        </g>

    <path d="M225,175 l0,0 62,-32 l0,0 101,51 v88 l0,0 -63.5,31 v-88 l0,0 -75,-37" fill="#313C49" />
    
    <path d="M388,194 l0,0 200,100 v87.5 l0,0 -200,-100 v-87.5" fill="#57585B" />
    <path d="M425,230 v70 l0,0 50,25 v-70 l0,0 -50,-25" fill="#BAE1F7" />
        <g fill="#0092D0" stroke="white" stroke-width="2" stroke-linejoin="round">
          <path d="M430,280 v-30 l0,0 15,8 v30 l0,0 -15,-8" />
          <path d="M455,295 v-30 l0,0 15,8 v30 l0,0 -15,-8" />
          <path d="M500,315 v-30 l0,0 28,14 v30 l0,0 -28,-14" />
          <path d="M540,335 v-30 l0,0 28,14 v30 l0,0 -28,-14" />
        </g>

        <g fill="#fffcbb" filter="url(#blurMe)">
          <path d="M430,280 v-30 l0,0 15,8 v30 l0,0 -15,-8" />
          <path d="M455,295 v-30 l0,0 15,8 v30 l0,0 -15,-8" />
          <path d="M500,315 v-30 l0,0 28,14 v30 l0,0 -28,-14" />
          <path d="M540,335 v-30 l0,0 28,14 v30 l0,0 -28,-14" />
        </g>
          
    
    <path d="M588,294 l0,0 150,-75 v87.5 l0,0 -150,75 v-87.5" fill="#313C49" />

    <path d="M285,144 v-50 l0,0 291,144 v70 l0,0 -201,-101 v-19 l0,0 -88,-44" fill="#E7E7E7" />
        <g fill="#0092D0" stroke="#535559" stroke-width="2" stroke-linejoin="round">
          <path d="M300,135 v-20 l0,0 70,35 v20 l0,0 -70,-35" />
          <path d="M420,220 v-50 l0,0 20,10 v50 l0,0 -20,-10 v-30 l0,0 20,10 " />
          <path d="M480,250 v-50 l0,0 20,10 v50 l0,0 -20,-10 v-30 l0,0 20,10 " />
        </g>

        <g fill="#fffcbb" filter="url(#blurMe)">
          <path d="M300,135 v-20 l0,0 70,35 v20 l0,0 -70,-35" />
          <path d="M420,220 v-50 l0,0 20,10 v50 l0,0 -20,-10 v-30 l0,0 20,10 " />
          <path d="M480,250 v-50 l0,0 20,10 v50 l0,0 -20,-10 v-30 l0,0 20,10 " />
        </g>

    <path d="M575,299.5 v-62 l0,0 163.5,-98 v85 l0,0 -163,84" fill="#BDBDAF" />
        <g fill="#0092D0" stroke="#535559" stroke-width="2" stroke-linejoin="round">
          <path d="M620,275 v-50 l0,0 20,-12 v50 l0,0 -20,12 v-30 l0,0 20,-12" />
          <path d="M680,245 v-50 l0,0 20,-12 v50 l0,0 -20,12 v-30 l0,0 20,-12" />
        </g>

        <g fill="#fffcbb" filter="url(#blurMe)">
          <path d="M620,275 v-50 l0,0 20,-12 v50 l0,0 -20,12 v-30 l0,0 20,-12" />
          <path d="M680,245 v-50 l0,0 20,-12 v50 l0,0 -20,12 v-30 l0,0 20,-12" />
        </g>

    <path d="M575,237.5 l0,0 167.5,-98 l0,0 -275,-137 l0,0 -184,90 " fill="#57585B" />

    <path d="M400,85 l0,0 180,90 l0,0 60,-40 l0,0 -180,-90 l0,0 -62,41" stroke="#B7B7AB" fill="#29304C" stroke-width="4" stroke-linejoin="round"/>

    <line x1="420" y1="95" x2="480" y2="55" stroke="#A1AFAE" stroke-width="2" />
    <line x1="440" y1="105" x2="500" y2="65" stroke="#A1AFAE" stroke-width="2" />
    <line x1="460" y1="115" x2="520" y2="75" stroke="#A1AFAE" stroke-width="2" />
    <line x1="480" y1="125" x2="540" y2="85" stroke="#A1AFAE" stroke-width="2" />
    <line x1="500" y1="135" x2="560" y2="95" stroke="#A1AFAE" stroke-width="2" />
    <line x1="520" y1="145" x2="580" y2="105" stroke="#A1AFAE" stroke-width="2" />
    <line x1="540" y1="155" x2="600" y2="115" stroke="#A1AFAE" stroke-width="2" />
    <line x1="560" y1="165" x2="620" y2="125" stroke="#A1AFAE" stroke-width="2" />

    <line x1="420" y1="70" x2="600" y2="160" stroke="#A1AFAE" stroke-width="2" />
    <line x1="440" y1="60" x2="620" y2="150" stroke="#A1AFAE" stroke-width="2" />

    <circle cx="180" cy="270" r="15" fill="#30B468" filter="url(#f1)" />
    <circle cx="500" cy="380" r="15" fill="#30B468" filter="url(#f1)" />

    <path d="M795,200 v90 c 0,5 10,5 10,0 v-90" fill="#57585B"/>
    <ellipse cx="800" cy="180" rx="20" ry="60" fill="#30B468" stroke-width="2" />

    <path d="M100, 130 l0,0 3,-25 h-20 l0,0 20,-35 l0,0 -3,23 h20" stroke="none" fill="yellow" />
    <!-- <rect fill="url(#isometric)" height="1000" width="1000" /> -->
    <circle cx="100" cy="100" r="50" fill="#30B468" />
    <path d="M100, 130 l0,0 3,-25 h-20 l0,0 20,-35 l0,0 -3,23 h20" stroke="none" fill="yellow" />
</svg>
